<svg width="27" height="27" viewBox="0 0 27 27" fill="none" xmlns="http://www.w3.org/2000/svg">
<path fill-rule="evenodd" clip-rule="evenodd" d="M13.501 25.8755C6.66645 25.8755 1.12598 20.335 1.12598 13.5005C1.12598 6.66596 6.66645 1.12549 13.501 1.12549C20.3355 1.12549 25.876 6.66596 25.876 13.5005C25.876 20.335 20.3355 25.8755 13.501 25.8755ZM13.5008 23.6253C19.0927 23.6253 23.6258 19.0922 23.6258 13.5003C23.6258 7.90841 19.0927 3.3753 13.5008 3.3753C7.9089 3.3753 3.37579 7.90841 3.37579 13.5003C3.37579 19.0922 7.9089 23.6253 13.5008 23.6253ZM19.1257 12.3753H11.7167L14.2962 9.79581L12.7052 8.20482L7.40973 13.5003L12.7052 18.7958L14.2962 17.2048L11.7167 14.6253H19.1257V12.3753Z" fill="#00C354"/>
</svg>
