<svg width="89" height="28" viewBox="0 0 89 28" fill="none" xmlns="http://www.w3.org/2000/svg">
<path d="M33.1348 26.7291L37.615 1.52783H44.6153L40.2751 26.7291H33.1348Z" fill="#3C58BF"/>
<path d="M33.1348 26.7291L38.875 1.52783H44.6153L40.2751 26.7291H33.1348Z" fill="#293688"/>
<path d="M65.6163 1.80853C64.2163 1.2485 61.9762 0.688477 59.176 0.688477C52.1757 0.688477 47.1355 4.18864 47.1355 9.22889C47.1355 13.0091 50.6356 14.9692 53.4358 16.2292C56.2359 17.4893 57.0759 18.3293 57.0759 19.4494C57.0759 21.1295 54.8358 21.9695 52.8757 21.9695C50.0756 21.9695 48.5355 21.5495 46.1554 20.5694L45.1754 20.1494L44.1953 25.8897C45.8754 26.5897 48.9555 27.2898 52.1757 27.2898C59.5961 27.2898 64.4963 23.7896 64.4963 18.4693C64.4963 15.5292 62.6762 13.2891 58.476 11.469C55.9559 10.2089 54.4158 9.5089 54.4158 8.24884C54.4158 7.12879 55.6759 6.00873 58.476 6.00873C60.8561 6.00873 62.5362 6.42875 63.7963 6.98878L64.4963 7.26879L65.6163 1.80853Z" fill="#3C58BF"/>
<path d="M65.6163 1.80853C64.2163 1.2485 61.9762 0.688477 59.176 0.688477C52.1757 0.688477 48.3955 4.18864 48.3955 9.22889C48.3955 13.0091 50.6356 14.9692 53.4358 16.2292C56.2359 17.4893 57.0759 18.3293 57.0759 19.4494C57.0759 21.1295 54.8358 21.9695 52.8757 21.9695C50.0756 21.9695 48.5355 21.5495 46.1554 20.5694L45.1754 20.1494L44.1953 25.8897C45.8754 26.5897 48.9555 27.2898 52.1757 27.2898C59.5961 27.2898 64.4963 23.7896 64.4963 18.4693C64.4963 15.5292 62.6762 13.2891 58.476 11.469C55.9559 10.2089 54.4158 9.5089 54.4158 8.24884C54.4158 7.12879 55.6759 6.00873 58.476 6.00873C60.8561 6.00873 62.5362 6.42875 63.7963 6.98878L64.4963 7.26879L65.6163 1.80853Z" fill="#293688"/>
<path d="M77.6563 1.52783C75.9762 1.52783 74.7162 1.66784 74.0161 3.34792L63.5156 26.7291H71.076L72.4761 22.5288H81.4365L82.2765 26.7291H88.9969L83.1166 1.52783H77.6563ZM74.4362 18.3286C74.8562 17.0686 77.2363 10.9083 77.2363 10.9083C77.2363 10.9083 77.7963 9.36821 78.2163 8.38817L78.6364 10.7683C78.6364 10.7683 80.0364 17.0686 80.3164 18.4687H74.4362V18.3286Z" fill="#3C58BF"/>
<path d="M79.3364 1.52783C77.6563 1.52783 76.3963 1.66784 75.6962 3.34792L63.5156 26.7291H71.076L72.4761 22.5288H81.4365L82.2765 26.7291H88.9969L83.1166 1.52783H79.3364ZM74.4362 18.3286C74.9962 16.9286 77.2363 10.9083 77.2363 10.9083C77.2363 10.9083 77.7963 9.36821 78.2163 8.38817L78.6364 10.7683C78.6364 10.7683 80.0364 17.0686 80.3164 18.4687H74.4362V18.3286Z" fill="#293688"/>
<path d="M20.2539 19.1693L19.5539 15.5291C18.2938 11.3289 14.2336 6.7087 9.75342 4.46859L16.0537 26.8697H23.6141L34.9546 1.66846H27.3943L20.2539 19.1693Z" fill="#3C58BF"/>
<path d="M20.2539 19.1693L19.5539 15.5291C18.2938 11.3289 14.2336 6.7087 9.75342 4.46859L16.0537 26.8697H23.6141L34.9546 1.66846H28.7943L20.2539 19.1693Z" fill="#293688"/>
<path d="M0.793457 1.52783L2.05352 1.80785C11.014 3.90795 17.1742 9.2282 19.5544 15.5285L17.0342 3.62793C16.6142 1.94785 15.3542 1.52783 13.8141 1.52783H0.793457Z" fill="#FFBC00"/>
<path d="M0.793457 1.52783C9.75389 3.62793 17.1742 9.0882 19.5544 15.3885L17.1742 5.44802C16.7542 3.76794 15.3542 2.7879 13.8141 2.7879L0.793457 1.52783Z" fill="#F7981D"/>
<path d="M0.793457 1.52783C9.75389 3.62793 17.1742 9.0882 19.5544 15.3885L17.8743 9.92824C17.4543 8.24816 16.8942 6.56808 14.9341 5.86804L0.793457 1.52783Z" fill="#ED7C00"/>
<path d="M27.2554 18.3298L22.4951 13.5695L20.255 18.8898L19.695 15.3896C18.4349 11.1894 14.3747 6.56921 9.89453 4.3291L16.1948 26.7302H23.7552L27.2554 18.3298Z" fill="#051244"/>
<path d="M40.2771 26.7296L34.2568 20.5693L33.1367 26.7296H40.2771Z" fill="#051244"/>
<path d="M56.3759 18.0488C56.9359 18.6089 57.2159 19.0289 57.0759 19.5889C57.0759 21.269 54.8358 22.109 52.8757 22.109C50.0756 22.109 48.5355 21.689 46.1554 20.709L45.1754 20.2889L44.1953 26.0292C45.8754 26.7292 48.9555 27.4293 52.1757 27.4293C56.6559 27.4293 60.2961 26.1692 62.3962 23.9291L56.3759 18.0488Z" fill="#051244"/>
<path d="M64.4961 26.7296H71.0764L72.4765 22.5294H81.4369L82.277 26.7296H88.9973L86.6172 16.5091L78.2168 8.38867L78.6368 10.6288C78.6368 10.6288 80.0368 16.9291 80.3169 18.3291H74.4366C74.9966 16.9291 77.2367 10.9088 77.2367 10.9088C77.2367 10.9088 77.7967 9.36872 78.2168 8.38867" fill="#051244"/>
</svg>
